<mxfile host="app.diagrams.net" agent="Mozilla/5.0 (X11; Linux x86_64; rv:138.0) Gecko/20100101 Firefox/138.0" version="27.0.5">
  <diagram name="Page-1" id="jbjJNkPmUtP2dKSvGRad">
    <mxGraphModel dx="1700" dy="1034" grid="1" gridSize="10" guides="0" tooltips="1" connect="1" arrows="1" fold="1" page="1" pageScale="1" pageWidth="850" pageHeight="1100" background="none" math="0" shadow="0">
      <root>
        <mxCell id="0" />
        <mxCell id="1" style="locked=1;" parent="0" />
        <mxCell id="MM-OqsWLesy-Uxxo-XAG-275" value="" style="whiteSpace=wrap;html=1;strokeColor=none;" parent="1" vertex="1">
          <mxGeometry width="700" height="550" as="geometry" />
        </mxCell>
        <object label="diagrams" id="MM-OqsWLesy-Uxxo-XAG-184">
          <mxCell style="" parent="0" />
        </object>
        <mxCell id="MM-OqsWLesy-Uxxo-XAG-185" value="&lt;div align=&quot;left&quot;&gt;&lt;br&gt;&lt;/div&gt;" style="rounded=0;whiteSpace=wrap;html=1;container=0;" parent="MM-OqsWLesy-Uxxo-XAG-184" vertex="1">
          <mxGeometry x="40" y="40" width="200" height="100" as="geometry" />
        </mxCell>
        <mxCell id="XTRqxHaUjMBJCHAk5-VC-88" style="edgeStyle=orthogonalEdgeStyle;rounded=0;orthogonalLoop=1;jettySize=auto;html=1;exitX=1;exitY=0.5;exitDx=0;exitDy=0;entryX=0;entryY=0.5;entryDx=0;entryDy=0;" edge="1" parent="MM-OqsWLesy-Uxxo-XAG-184" source="MM-OqsWLesy-Uxxo-XAG-187" target="MM-OqsWLesy-Uxxo-XAG-196">
          <mxGeometry relative="1" as="geometry" />
        </mxCell>
        <mxCell id="MM-OqsWLesy-Uxxo-XAG-187" value="" style="rounded=0;whiteSpace=wrap;html=1;container=0;fillColor=#b1ddf0;strokeColor=#10739e;" parent="MM-OqsWLesy-Uxxo-XAG-184" vertex="1">
          <mxGeometry x="70" y="90" width="160" height="40" as="geometry" />
        </mxCell>
        <mxCell id="MM-OqsWLesy-Uxxo-XAG-188" value="blocl8_t" style="text;html=1;align=left;verticalAlign=middle;whiteSpace=wrap;rounded=0;fontSize=18;container=0;" parent="MM-OqsWLesy-Uxxo-XAG-184" vertex="1">
          <mxGeometry x="60" y="50" width="160" height="30" as="geometry" />
        </mxCell>
        <mxCell id="MM-OqsWLesy-Uxxo-XAG-189" value="uint8_t data[64]" style="text;html=1;align=center;verticalAlign=middle;whiteSpace=wrap;rounded=0;fontSize=18;container=0;" parent="MM-OqsWLesy-Uxxo-XAG-184" vertex="1">
          <mxGeometry x="80" y="95" width="140" height="30" as="geometry" />
        </mxCell>
        <mxCell id="MM-OqsWLesy-Uxxo-XAG-194" value="" style="group" parent="MM-OqsWLesy-Uxxo-XAG-184" vertex="1" connectable="0">
          <mxGeometry x="290" y="90" width="70" height="40" as="geometry" />
        </mxCell>
        <mxCell id="MM-OqsWLesy-Uxxo-XAG-195" style="edgeStyle=orthogonalEdgeStyle;rounded=0;orthogonalLoop=1;jettySize=auto;html=1;exitX=1;exitY=0.75;exitDx=0;exitDy=0;entryX=1;entryY=0.5;entryDx=0;entryDy=0;" parent="MM-OqsWLesy-Uxxo-XAG-194" source="MM-OqsWLesy-Uxxo-XAG-196" target="MM-OqsWLesy-Uxxo-XAG-197" edge="1">
          <mxGeometry relative="1" as="geometry" />
        </mxCell>
        <mxCell id="MM-OqsWLesy-Uxxo-XAG-196" value="" style="rounded=0;whiteSpace=wrap;html=1;container=0;" parent="MM-OqsWLesy-Uxxo-XAG-194" vertex="1">
          <mxGeometry width="70" height="40" as="geometry" />
        </mxCell>
        <mxCell id="MM-OqsWLesy-Uxxo-XAG-197" value="&lt;div align=&quot;left&quot;&gt;int8_t&lt;/div&gt;" style="text;html=1;align=left;verticalAlign=middle;whiteSpace=wrap;rounded=0;fontSize=18;container=0;" parent="MM-OqsWLesy-Uxxo-XAG-194" vertex="1">
          <mxGeometry x="10" y="5" width="50" height="30" as="geometry" />
        </mxCell>
        <mxCell id="MM-OqsWLesy-Uxxo-XAG-202" value="" style="group" parent="MM-OqsWLesy-Uxxo-XAG-184" vertex="1" connectable="0">
          <mxGeometry x="400" y="90" width="70" height="40" as="geometry" />
        </mxCell>
        <mxCell id="MM-OqsWLesy-Uxxo-XAG-203" style="edgeStyle=orthogonalEdgeStyle;rounded=0;orthogonalLoop=1;jettySize=auto;html=1;exitX=1;exitY=0.75;exitDx=0;exitDy=0;entryX=1;entryY=0.5;entryDx=0;entryDy=0;" parent="MM-OqsWLesy-Uxxo-XAG-202" source="MM-OqsWLesy-Uxxo-XAG-204" target="MM-OqsWLesy-Uxxo-XAG-205" edge="1">
          <mxGeometry relative="1" as="geometry" />
        </mxCell>
        <mxCell id="MM-OqsWLesy-Uxxo-XAG-204" value="" style="rounded=0;whiteSpace=wrap;html=1;container=0;" parent="MM-OqsWLesy-Uxxo-XAG-202" vertex="1">
          <mxGeometry width="70" height="40" as="geometry" />
        </mxCell>
        <mxCell id="MM-OqsWLesy-Uxxo-XAG-205" value="&lt;div align=&quot;left&quot;&gt;int8_t&lt;/div&gt;" style="text;html=1;align=left;verticalAlign=middle;whiteSpace=wrap;rounded=0;fontSize=18;container=0;" parent="MM-OqsWLesy-Uxxo-XAG-202" vertex="1">
          <mxGeometry x="10" y="5" width="50" height="30" as="geometry" />
        </mxCell>
        <mxCell id="MM-OqsWLesy-Uxxo-XAG-209" value="" style="group" parent="MM-OqsWLesy-Uxxo-XAG-184" vertex="1" connectable="0">
          <mxGeometry x="570" y="90" width="70" height="40" as="geometry" />
        </mxCell>
        <mxCell id="MM-OqsWLesy-Uxxo-XAG-210" style="edgeStyle=orthogonalEdgeStyle;rounded=0;orthogonalLoop=1;jettySize=auto;html=1;exitX=1;exitY=0.75;exitDx=0;exitDy=0;entryX=1;entryY=0.5;entryDx=0;entryDy=0;" parent="MM-OqsWLesy-Uxxo-XAG-209" source="MM-OqsWLesy-Uxxo-XAG-211" target="MM-OqsWLesy-Uxxo-XAG-212" edge="1">
          <mxGeometry relative="1" as="geometry" />
        </mxCell>
        <mxCell id="MM-OqsWLesy-Uxxo-XAG-211" value="" style="rounded=0;whiteSpace=wrap;html=1;container=0;" parent="MM-OqsWLesy-Uxxo-XAG-209" vertex="1">
          <mxGeometry width="70" height="40" as="geometry" />
        </mxCell>
        <mxCell id="MM-OqsWLesy-Uxxo-XAG-212" value="&lt;div align=&quot;left&quot;&gt;int8_t&lt;/div&gt;" style="text;html=1;align=left;verticalAlign=middle;whiteSpace=wrap;rounded=0;fontSize=18;container=0;" parent="MM-OqsWLesy-Uxxo-XAG-209" vertex="1">
          <mxGeometry x="10" y="5" width="50" height="30" as="geometry" />
        </mxCell>
        <mxCell id="XTRqxHaUjMBJCHAk5-VC-94" style="edgeStyle=orthogonalEdgeStyle;rounded=0;orthogonalLoop=1;jettySize=auto;html=1;exitX=1;exitY=0.5;exitDx=0;exitDy=0;entryX=0;entryY=0.5;entryDx=0;entryDy=0;" edge="1" parent="MM-OqsWLesy-Uxxo-XAG-184" source="MM-OqsWLesy-Uxxo-XAG-214" target="MM-OqsWLesy-Uxxo-XAG-211">
          <mxGeometry relative="1" as="geometry" />
        </mxCell>
        <mxCell id="MM-OqsWLesy-Uxxo-XAG-214" value="&lt;div&gt;...&lt;/div&gt;" style="text;html=1;align=center;verticalAlign=middle;whiteSpace=wrap;rounded=0;fontSize=18;" parent="MM-OqsWLesy-Uxxo-XAG-184" vertex="1">
          <mxGeometry x="500" y="95" width="40" height="30" as="geometry" />
        </mxCell>
        <mxCell id="MM-OqsWLesy-Uxxo-XAG-215" value="" style="shape=curlyBracket;whiteSpace=wrap;html=1;rounded=1;labelPosition=left;verticalLabelPosition=middle;align=right;verticalAlign=middle;rotation=90;" parent="MM-OqsWLesy-Uxxo-XAG-184" vertex="1">
          <mxGeometry x="450" y="-110" width="20" height="350" as="geometry" />
        </mxCell>
        <mxCell id="MM-OqsWLesy-Uxxo-XAG-216" value="&lt;div&gt;64&lt;/div&gt;" style="text;html=1;align=center;verticalAlign=middle;whiteSpace=wrap;rounded=0;fontSize=18;" parent="MM-OqsWLesy-Uxxo-XAG-184" vertex="1">
          <mxGeometry x="440" y="20" width="40" height="30" as="geometry" />
        </mxCell>
        <mxCell id="MM-OqsWLesy-Uxxo-XAG-217" style="edgeStyle=orthogonalEdgeStyle;rounded=0;orthogonalLoop=1;jettySize=auto;html=1;entryX=0;entryY=0.5;entryDx=0;entryDy=0;" parent="MM-OqsWLesy-Uxxo-XAG-184" source="MM-OqsWLesy-Uxxo-XAG-219" target="MM-OqsWLesy-Uxxo-XAG-226" edge="1">
          <mxGeometry relative="1" as="geometry">
            <mxPoint x="410" y="290" as="targetPoint" />
          </mxGeometry>
        </mxCell>
        <mxCell id="XTRqxHaUjMBJCHAk5-VC-70" style="edgeStyle=orthogonalEdgeStyle;rounded=0;orthogonalLoop=1;jettySize=auto;html=1;entryX=0.5;entryY=0;entryDx=0;entryDy=0;" edge="1" parent="MM-OqsWLesy-Uxxo-XAG-184" source="MM-OqsWLesy-Uxxo-XAG-219" target="MM-OqsWLesy-Uxxo-XAG-223">
          <mxGeometry relative="1" as="geometry" />
        </mxCell>
        <mxCell id="MM-OqsWLesy-Uxxo-XAG-219" value="" style="rounded=0;whiteSpace=wrap;html=1;container=0;fillColor=#b1ddf0;strokeColor=#10739e;" parent="MM-OqsWLesy-Uxxo-XAG-184" vertex="1">
          <mxGeometry x="290" y="265" width="100" height="50" as="geometry" />
        </mxCell>
        <mxCell id="MM-OqsWLesy-Uxxo-XAG-220" value="&lt;div align=&quot;left&quot;&gt;int8_t *&lt;/div&gt;" style="text;html=1;align=left;verticalAlign=middle;whiteSpace=wrap;rounded=0;fontSize=18;container=0;" parent="MM-OqsWLesy-Uxxo-XAG-184" vertex="1">
          <mxGeometry x="310" y="275" width="80" height="30" as="geometry" />
        </mxCell>
        <mxCell id="MM-OqsWLesy-Uxxo-XAG-221" value="" style="group" parent="MM-OqsWLesy-Uxxo-XAG-184" vertex="1" connectable="0">
          <mxGeometry x="305" y="345" width="70" height="40" as="geometry" />
        </mxCell>
        <mxCell id="MM-OqsWLesy-Uxxo-XAG-222" style="edgeStyle=orthogonalEdgeStyle;rounded=0;orthogonalLoop=1;jettySize=auto;html=1;exitX=1;exitY=0.75;exitDx=0;exitDy=0;entryX=1;entryY=0.5;entryDx=0;entryDy=0;" parent="MM-OqsWLesy-Uxxo-XAG-221" source="MM-OqsWLesy-Uxxo-XAG-223" target="MM-OqsWLesy-Uxxo-XAG-224" edge="1">
          <mxGeometry relative="1" as="geometry" />
        </mxCell>
        <mxCell id="MM-OqsWLesy-Uxxo-XAG-223" value="" style="rounded=0;whiteSpace=wrap;html=1;container=0;" parent="MM-OqsWLesy-Uxxo-XAG-221" vertex="1">
          <mxGeometry width="70" height="40" as="geometry" />
        </mxCell>
        <mxCell id="MM-OqsWLesy-Uxxo-XAG-224" value="&lt;div align=&quot;left&quot;&gt;int8_t&lt;/div&gt;" style="text;html=1;align=left;verticalAlign=middle;whiteSpace=wrap;rounded=0;fontSize=18;container=0;" parent="MM-OqsWLesy-Uxxo-XAG-221" vertex="1">
          <mxGeometry x="10" y="5" width="50" height="30" as="geometry" />
        </mxCell>
        <mxCell id="MM-OqsWLesy-Uxxo-XAG-225" style="edgeStyle=orthogonalEdgeStyle;rounded=0;orthogonalLoop=1;jettySize=auto;html=1;entryX=0;entryY=0.5;entryDx=0;entryDy=0;" parent="MM-OqsWLesy-Uxxo-XAG-184" source="MM-OqsWLesy-Uxxo-XAG-226" target="MM-OqsWLesy-Uxxo-XAG-231" edge="1">
          <mxGeometry relative="1" as="geometry" />
        </mxCell>
        <mxCell id="MM-OqsWLesy-Uxxo-XAG-226" value="&lt;div&gt;...&lt;/div&gt;" style="text;html=1;align=center;verticalAlign=middle;whiteSpace=wrap;rounded=0;fontSize=18;" parent="MM-OqsWLesy-Uxxo-XAG-184" vertex="1">
          <mxGeometry x="420" y="275" width="40" height="30" as="geometry" />
        </mxCell>
        <mxCell id="MM-OqsWLesy-Uxxo-XAG-230" value="" style="group" parent="MM-OqsWLesy-Uxxo-XAG-184" vertex="1" connectable="0">
          <mxGeometry x="490" y="265" width="100" height="50" as="geometry" />
        </mxCell>
        <mxCell id="MM-OqsWLesy-Uxxo-XAG-231" value="" style="rounded=0;whiteSpace=wrap;html=1;container=0;fillColor=#b1ddf0;strokeColor=#10739e;" parent="MM-OqsWLesy-Uxxo-XAG-230" vertex="1">
          <mxGeometry width="100" height="50" as="geometry" />
        </mxCell>
        <mxCell id="MM-OqsWLesy-Uxxo-XAG-232" value="&lt;div align=&quot;left&quot;&gt;int8_t *&lt;/div&gt;" style="text;html=1;align=left;verticalAlign=middle;whiteSpace=wrap;rounded=0;fontSize=18;container=0;" parent="MM-OqsWLesy-Uxxo-XAG-230" vertex="1">
          <mxGeometry x="20" y="10" width="80" height="30" as="geometry" />
        </mxCell>
        <mxCell id="MM-OqsWLesy-Uxxo-XAG-235" value="" style="group" parent="MM-OqsWLesy-Uxxo-XAG-184" vertex="1" connectable="0">
          <mxGeometry x="305" y="465" width="70" height="40" as="geometry" />
        </mxCell>
        <mxCell id="MM-OqsWLesy-Uxxo-XAG-236" style="edgeStyle=orthogonalEdgeStyle;rounded=0;orthogonalLoop=1;jettySize=auto;html=1;exitX=1;exitY=0.75;exitDx=0;exitDy=0;entryX=1;entryY=0.5;entryDx=0;entryDy=0;" parent="MM-OqsWLesy-Uxxo-XAG-235" source="MM-OqsWLesy-Uxxo-XAG-237" target="MM-OqsWLesy-Uxxo-XAG-238" edge="1">
          <mxGeometry relative="1" as="geometry" />
        </mxCell>
        <mxCell id="MM-OqsWLesy-Uxxo-XAG-237" value="" style="rounded=0;whiteSpace=wrap;html=1;container=0;" parent="MM-OqsWLesy-Uxxo-XAG-235" vertex="1">
          <mxGeometry width="70" height="40" as="geometry" />
        </mxCell>
        <mxCell id="MM-OqsWLesy-Uxxo-XAG-238" value="&lt;div align=&quot;left&quot;&gt;int8_t&lt;/div&gt;" style="text;html=1;align=left;verticalAlign=middle;whiteSpace=wrap;rounded=0;fontSize=18;container=0;" parent="MM-OqsWLesy-Uxxo-XAG-235" vertex="1">
          <mxGeometry x="10" y="5" width="50" height="30" as="geometry" />
        </mxCell>
        <mxCell id="XTRqxHaUjMBJCHAk5-VC-67" style="edgeStyle=orthogonalEdgeStyle;rounded=0;orthogonalLoop=1;jettySize=auto;html=1;exitX=0.5;exitY=1;exitDx=0;exitDy=0;entryX=0.5;entryY=0;entryDx=0;entryDy=0;" edge="1" parent="MM-OqsWLesy-Uxxo-XAG-184" source="MM-OqsWLesy-Uxxo-XAG-242" target="MM-OqsWLesy-Uxxo-XAG-237">
          <mxGeometry relative="1" as="geometry" />
        </mxCell>
        <mxCell id="MM-OqsWLesy-Uxxo-XAG-242" value="&lt;div&gt;...&lt;/div&gt;" style="text;html=1;align=center;verticalAlign=middle;whiteSpace=wrap;rounded=0;fontSize=18;" parent="MM-OqsWLesy-Uxxo-XAG-184" vertex="1">
          <mxGeometry x="320" y="410" width="40" height="30" as="geometry" />
        </mxCell>
        <mxCell id="MM-OqsWLesy-Uxxo-XAG-243" style="edgeStyle=orthogonalEdgeStyle;rounded=0;orthogonalLoop=1;jettySize=auto;html=1;entryX=0.5;entryY=0;entryDx=0;entryDy=0;exitX=0.5;exitY=1;exitDx=0;exitDy=0;" parent="MM-OqsWLesy-Uxxo-XAG-184" source="MM-OqsWLesy-Uxxo-XAG-223" target="MM-OqsWLesy-Uxxo-XAG-242" edge="1">
          <mxGeometry relative="1" as="geometry">
            <mxPoint x="340" y="390" as="sourcePoint" />
          </mxGeometry>
        </mxCell>
        <mxCell id="MM-OqsWLesy-Uxxo-XAG-264" value="" style="shape=curlyBracket;whiteSpace=wrap;html=1;rounded=1;labelPosition=left;verticalLabelPosition=middle;align=right;verticalAlign=middle;rotation=-180;" parent="MM-OqsWLesy-Uxxo-XAG-184" vertex="1">
          <mxGeometry x="610" y="345" width="20" height="160" as="geometry" />
        </mxCell>
        <mxCell id="MM-OqsWLesy-Uxxo-XAG-265" value="8" style="text;html=1;align=center;verticalAlign=middle;whiteSpace=wrap;rounded=0;fontSize=18;" parent="MM-OqsWLesy-Uxxo-XAG-184" vertex="1">
          <mxGeometry x="630" y="405" width="40" height="30" as="geometry" />
        </mxCell>
        <mxCell id="MM-OqsWLesy-Uxxo-XAG-266" value="" style="shape=curlyBracket;whiteSpace=wrap;html=1;rounded=1;labelPosition=left;verticalLabelPosition=middle;align=right;verticalAlign=middle;rotation=90;" parent="MM-OqsWLesy-Uxxo-XAG-184" vertex="1">
          <mxGeometry x="430" y="90" width="20" height="300" as="geometry" />
        </mxCell>
        <mxCell id="MM-OqsWLesy-Uxxo-XAG-267" value="&lt;div&gt;8&lt;/div&gt;" style="text;html=1;align=center;verticalAlign=middle;whiteSpace=wrap;rounded=0;fontSize=18;" parent="MM-OqsWLesy-Uxxo-XAG-184" vertex="1">
          <mxGeometry x="420" y="195" width="40" height="30" as="geometry" />
        </mxCell>
        <mxCell id="XTRqxHaUjMBJCHAk5-VC-62" value="&lt;div align=&quot;left&quot;&gt;&lt;br&gt;&lt;/div&gt;" style="rounded=0;whiteSpace=wrap;html=1;container=0;" vertex="1" parent="MM-OqsWLesy-Uxxo-XAG-184">
          <mxGeometry x="40" y="255" width="200" height="100" as="geometry" />
        </mxCell>
        <mxCell id="XTRqxHaUjMBJCHAk5-VC-66" style="edgeStyle=orthogonalEdgeStyle;rounded=0;orthogonalLoop=1;jettySize=auto;html=1;exitX=1;exitY=0.5;exitDx=0;exitDy=0;entryX=0;entryY=0.5;entryDx=0;entryDy=0;" edge="1" parent="MM-OqsWLesy-Uxxo-XAG-184" source="XTRqxHaUjMBJCHAk5-VC-63" target="MM-OqsWLesy-Uxxo-XAG-219">
          <mxGeometry relative="1" as="geometry" />
        </mxCell>
        <mxCell id="XTRqxHaUjMBJCHAk5-VC-63" value="" style="rounded=0;whiteSpace=wrap;html=1;container=0;fillColor=#b1ddf0;strokeColor=#10739e;" vertex="1" parent="MM-OqsWLesy-Uxxo-XAG-184">
          <mxGeometry x="70" y="305" width="160" height="40" as="geometry" />
        </mxCell>
        <mxCell id="XTRqxHaUjMBJCHAk5-VC-64" value="bloct8_t" style="text;html=1;align=left;verticalAlign=middle;whiteSpace=wrap;rounded=0;fontSize=18;container=0;" vertex="1" parent="MM-OqsWLesy-Uxxo-XAG-184">
          <mxGeometry x="60" y="265" width="160" height="30" as="geometry" />
        </mxCell>
        <mxCell id="XTRqxHaUjMBJCHAk5-VC-65" value="uint8_t data[8][8]" style="text;html=1;align=center;verticalAlign=middle;whiteSpace=wrap;rounded=0;fontSize=18;container=0;" vertex="1" parent="MM-OqsWLesy-Uxxo-XAG-184">
          <mxGeometry x="80" y="310" width="140" height="30" as="geometry" />
        </mxCell>
        <mxCell id="XTRqxHaUjMBJCHAk5-VC-71" value="" style="group" vertex="1" connectable="0" parent="MM-OqsWLesy-Uxxo-XAG-184">
          <mxGeometry x="506" y="345" width="70" height="40" as="geometry" />
        </mxCell>
        <mxCell id="XTRqxHaUjMBJCHAk5-VC-72" style="edgeStyle=orthogonalEdgeStyle;rounded=0;orthogonalLoop=1;jettySize=auto;html=1;exitX=1;exitY=0.75;exitDx=0;exitDy=0;entryX=1;entryY=0.5;entryDx=0;entryDy=0;" edge="1" parent="XTRqxHaUjMBJCHAk5-VC-71" source="XTRqxHaUjMBJCHAk5-VC-73" target="XTRqxHaUjMBJCHAk5-VC-74">
          <mxGeometry relative="1" as="geometry" />
        </mxCell>
        <mxCell id="XTRqxHaUjMBJCHAk5-VC-73" value="" style="rounded=0;whiteSpace=wrap;html=1;container=0;" vertex="1" parent="XTRqxHaUjMBJCHAk5-VC-71">
          <mxGeometry width="70" height="40" as="geometry" />
        </mxCell>
        <mxCell id="XTRqxHaUjMBJCHAk5-VC-74" value="&lt;div align=&quot;left&quot;&gt;int8_t&lt;/div&gt;" style="text;html=1;align=left;verticalAlign=middle;whiteSpace=wrap;rounded=0;fontSize=18;container=0;" vertex="1" parent="XTRqxHaUjMBJCHAk5-VC-71">
          <mxGeometry x="10" y="5" width="50" height="30" as="geometry" />
        </mxCell>
        <mxCell id="XTRqxHaUjMBJCHAk5-VC-75" value="" style="group" vertex="1" connectable="0" parent="MM-OqsWLesy-Uxxo-XAG-184">
          <mxGeometry x="506" y="465" width="70" height="40" as="geometry" />
        </mxCell>
        <mxCell id="XTRqxHaUjMBJCHAk5-VC-76" style="edgeStyle=orthogonalEdgeStyle;rounded=0;orthogonalLoop=1;jettySize=auto;html=1;exitX=1;exitY=0.75;exitDx=0;exitDy=0;entryX=1;entryY=0.5;entryDx=0;entryDy=0;" edge="1" parent="XTRqxHaUjMBJCHAk5-VC-75" source="XTRqxHaUjMBJCHAk5-VC-77" target="XTRqxHaUjMBJCHAk5-VC-78">
          <mxGeometry relative="1" as="geometry" />
        </mxCell>
        <mxCell id="XTRqxHaUjMBJCHAk5-VC-77" value="" style="rounded=0;whiteSpace=wrap;html=1;container=0;" vertex="1" parent="XTRqxHaUjMBJCHAk5-VC-75">
          <mxGeometry width="70" height="40" as="geometry" />
        </mxCell>
        <mxCell id="XTRqxHaUjMBJCHAk5-VC-78" value="&lt;div align=&quot;left&quot;&gt;int8_t&lt;/div&gt;" style="text;html=1;align=left;verticalAlign=middle;whiteSpace=wrap;rounded=0;fontSize=18;container=0;" vertex="1" parent="XTRqxHaUjMBJCHAk5-VC-75">
          <mxGeometry x="10" y="5" width="50" height="30" as="geometry" />
        </mxCell>
        <mxCell id="XTRqxHaUjMBJCHAk5-VC-79" style="edgeStyle=orthogonalEdgeStyle;rounded=0;orthogonalLoop=1;jettySize=auto;html=1;exitX=0.5;exitY=1;exitDx=0;exitDy=0;entryX=0.5;entryY=0;entryDx=0;entryDy=0;" edge="1" parent="MM-OqsWLesy-Uxxo-XAG-184" source="XTRqxHaUjMBJCHAk5-VC-80" target="XTRqxHaUjMBJCHAk5-VC-77">
          <mxGeometry relative="1" as="geometry" />
        </mxCell>
        <mxCell id="XTRqxHaUjMBJCHAk5-VC-80" value="&lt;div&gt;...&lt;/div&gt;" style="text;html=1;align=center;verticalAlign=middle;whiteSpace=wrap;rounded=0;fontSize=18;" vertex="1" parent="MM-OqsWLesy-Uxxo-XAG-184">
          <mxGeometry x="521" y="410" width="40" height="30" as="geometry" />
        </mxCell>
        <mxCell id="XTRqxHaUjMBJCHAk5-VC-81" style="edgeStyle=orthogonalEdgeStyle;rounded=0;orthogonalLoop=1;jettySize=auto;html=1;entryX=0.5;entryY=0;entryDx=0;entryDy=0;exitX=0.5;exitY=1;exitDx=0;exitDy=0;" edge="1" parent="MM-OqsWLesy-Uxxo-XAG-184" source="XTRqxHaUjMBJCHAk5-VC-73" target="XTRqxHaUjMBJCHAk5-VC-80">
          <mxGeometry relative="1" as="geometry">
            <mxPoint x="541" y="390" as="sourcePoint" />
          </mxGeometry>
        </mxCell>
        <mxCell id="XTRqxHaUjMBJCHAk5-VC-87" style="edgeStyle=orthogonalEdgeStyle;rounded=0;orthogonalLoop=1;jettySize=auto;html=1;exitX=0.5;exitY=1;exitDx=0;exitDy=0;entryX=0.5;entryY=0;entryDx=0;entryDy=0;" edge="1" parent="MM-OqsWLesy-Uxxo-XAG-184" source="MM-OqsWLesy-Uxxo-XAG-231" target="XTRqxHaUjMBJCHAk5-VC-73">
          <mxGeometry relative="1" as="geometry" />
        </mxCell>
        <mxCell id="XTRqxHaUjMBJCHAk5-VC-90" style="edgeStyle=orthogonalEdgeStyle;rounded=0;orthogonalLoop=1;jettySize=auto;html=1;exitX=1;exitY=0.5;exitDx=0;exitDy=0;entryX=0;entryY=0.5;entryDx=0;entryDy=0;" edge="1" parent="MM-OqsWLesy-Uxxo-XAG-184" source="MM-OqsWLesy-Uxxo-XAG-196" target="MM-OqsWLesy-Uxxo-XAG-204">
          <mxGeometry relative="1" as="geometry" />
        </mxCell>
        <mxCell id="XTRqxHaUjMBJCHAk5-VC-91" style="edgeStyle=orthogonalEdgeStyle;rounded=0;orthogonalLoop=1;jettySize=auto;html=1;exitX=1;exitY=0.5;exitDx=0;exitDy=0;entryX=0;entryY=0.5;entryDx=0;entryDy=0;" edge="1" parent="MM-OqsWLesy-Uxxo-XAG-184" source="MM-OqsWLesy-Uxxo-XAG-204" target="MM-OqsWLesy-Uxxo-XAG-214">
          <mxGeometry relative="1" as="geometry" />
        </mxCell>
      </root>
    </mxGraphModel>
  </diagram>
</mxfile>
